<svg width="543" height="184" viewBox="0 0 543 184" fill="none" xmlns="http://www.w3.org/2000/svg">
<path d="M100.625 10.7915L57.587 158.046H49.7169L92.7531 10.7915H100.625ZM86.9581 10.7915L43.922 158.046H34.7072L77.7433 10.7915H86.9581Z" fill="#FBD211" stroke="#FBD211" stroke-width="2.02451"/>
<path d="M6.49006 157.192H3.22247L29.5402 69.3161L30.0891 67.7798H30.0016L46.8506 11.5202H50.1202L6.49006 157.192Z" fill="#E31A24"/>
<path d="M24.6139 157.192H20.3122L63.9423 11.5202H68.244L24.6139 157.192Z" fill="#E31A24"/>
<path d="M15.2567 67.7798H13.2738L30.093 11.5202H32.1077L15.2567 67.7798Z" fill="#E31A24"/>
<path d="M6.49006 157.192H3.22247L29.5402 69.3161L30.0891 67.7798H30.0016L46.8506 11.5202H50.1202L6.49006 157.192Z" stroke="#E31A24" stroke-width="3.6133"/>
<path d="M24.6139 157.192H20.3122L63.9423 11.5202H68.244L24.6139 157.192Z" stroke="#E31A24" stroke-width="3.6133"/>
<path d="M15.2567 67.7798H13.2738L30.093 11.5202H32.1077L15.2567 67.7798Z" stroke="#E31A24" stroke-width="3.6133"/>
<path d="M110.617 9.77881C129.758 9.77899 145.274 22.8902 145.274 39.0632C145.273 52.7189 134.211 64.1915 119.245 67.4317H121.281C151.226 67.4317 175.501 87.9429 175.502 113.245C175.501 138.547 151.226 159.058 121.281 159.058H64.4296L108.06 9.77881H110.617Z" fill="#038540"/>
<path d="M223.322 145.515C202.997 145.515 188.092 129.526 188.092 108.252C188.092 86.9791 202.997 70.9902 223.322 70.9902C243.647 70.9902 258.551 86.9791 258.551 108.252C258.551 129.526 243.647 145.515 223.322 145.515ZM223.322 133.455C235.11 133.455 244.46 123.97 244.46 108.252C244.46 92.5345 235.11 83.1851 223.322 83.1851C211.533 83.1851 202.319 92.5345 202.319 108.252C202.319 123.97 211.533 133.455 223.322 133.455ZM303.938 145.515C283.613 145.515 268.709 129.526 268.709 108.252C268.709 86.9791 283.613 70.9902 303.938 70.9902C324.263 70.9902 339.168 86.9791 339.168 108.252C339.168 129.526 324.263 145.515 303.938 145.515ZM303.938 133.455C315.727 133.455 325.076 123.97 325.076 108.252C325.076 92.5345 315.727 83.1851 303.938 83.1851C292.15 83.1851 282.936 92.5345 282.936 108.252C282.936 123.97 292.15 133.455 303.938 133.455ZM368.295 144.16H354.474V46.8714H368.295V144.16ZM383.496 108.252C383.496 86.4371 395.962 70.9902 415.338 70.9902C424.959 70.9902 433.36 75.8682 438.373 84.6756V46.8714H452.058V144.16H439.321V131.287C434.173 140.366 425.501 145.515 415.338 145.515C395.962 145.515 383.496 129.797 383.496 108.252ZM397.723 108.252C397.723 124.241 406.124 133.32 418.048 133.32C429.701 133.32 438.373 123.835 438.373 107.981C438.373 91.857 429.43 83.0496 418.048 83.0496C406.124 83.0496 397.723 91.9925 397.723 108.252ZM502.518 145.515C482.193 145.515 467.288 129.526 467.288 108.252C467.288 86.9791 482.193 70.9902 502.518 70.9902C522.843 70.9902 537.748 86.9791 537.748 108.252C537.748 129.526 522.843 145.515 502.518 145.515ZM502.518 133.455C514.306 133.455 523.656 123.97 523.656 108.252C523.656 92.5345 514.306 83.1851 502.518 83.1851C490.729 83.1851 481.516 92.5345 481.516 108.252C481.516 123.97 490.729 133.455 502.518 133.455Z" fill="#202020"/>
</svg>
